o Sphere40

mtllib sphere40.mtl

v 0.0 0.0 5.0
v 2.5 0.0 4.33012701892
v 1.76776695297 1.76776695297 4.33012701892
v 1.53080849893e-16 2.5 4.33012701892
v -1.76776695297 1.76776695297 4.33012701892
v -2.5 3.06161699787e-16 4.33012701892
v -1.76776695297 -1.76776695297 4.33012701892
v -4.5924254968e-16 -2.5 4.33012701892
v 1.76776695297 -1.76776695297 4.33012701892
v 4.33012701892 0.0 2.5
v 3.06186217848 3.06186217848 2.5
v 2.65143809681e-16 4.33012701892 2.5
v -3.06186217848 3.06186217848 2.5
v -4.33012701892 5.30287619362e-16 2.5
v -3.06186217848 -3.06186217848 2.5
v -7.95431429044e-16 -4.33012701892 2.5
v 3.06186217848 -3.06186217848 2.5
v 5.0 0.0 3.06161699787e-16
v 3.53553390593 3.53553390593 3.06161699787e-16
v 3.06161699787e-16 5.0 3.06161699787e-16
v -3.53553390593 3.53553390593 3.06161699787e-16
v -5.0 6.12323399574e-16 3.06161699787e-16
v -3.53553390593 -3.53553390593 3.06161699787e-16
v -9.18485099361e-16 -5.0 3.06161699787e-16
v 3.53553390593 -3.53553390593 3.06161699787e-16
v 4.33012701892 0.0 -2.5
v 3.06186217848 3.06186217848 -2.5
v 2.65143809681e-16 4.33012701892 -2.5
v -3.06186217848 3.06186217848 -2.5
v -4.33012701892 5.30287619362e-16 -2.5
v -3.06186217848 -3.06186217848 -2.5
v -7.95431429044e-16 -4.33012701892 -2.5
v 3.06186217848 -3.06186217848 -2.5
v 2.5 0.0 -4.33012701892
v 1.76776695297 1.76776695297 -4.33012701892
v 1.53080849893e-16 2.5 -4.33012701892
v -1.76776695297 1.76776695297 -4.33012701892
v -2.5 3.06161699787e-16 -4.33012701892
v -1.76776695297 -1.76776695297 -4.33012701892
v -4.5924254968e-16 -2.5 -4.33012701892
v 1.76776695297 -1.76776695297 -4.33012701892
v 0.0 0.0 -5.0

vn 0 0 1
vn 0.5 0.0 0.866025403784
vn 0.353553390593 0.353553390593 0.866025403784
vn 3.06161699787e-17 0.5 0.866025403784
vn -0.353553390593 0.353553390593 0.866025403784
vn -0.5 6.12323399574e-17 0.866025403784
vn -0.353553390593 -0.353553390593 0.866025403784
vn -9.18485099361e-17 -0.5 0.866025403784
vn 0.353553390593 -0.353553390593 0.866025403784
vn 0.866025403784 0.0 0.5
vn 0.612372435696 0.612372435696 0.5
vn 5.30287619362e-17 0.866025403784 0.5
vn -0.612372435696 0.612372435696 0.5
vn -0.866025403784 1.06057523872e-16 0.5
vn -0.612372435696 -0.612372435696 0.5
vn -1.59086285809e-16 -0.866025403784 0.5
vn 0.612372435696 -0.612372435696 0.5
vn 1.0 0.0 6.12323399574e-17
vn 0.707106781187 0.707106781187 6.12323399574e-17
vn 6.12323399574e-17 1.0 6.12323399574e-17
vn -0.707106781187 0.707106781187 6.12323399574e-17
vn -1.0 1.22464679915e-16 6.12323399574e-17
vn -0.707106781187 -0.707106781187 6.12323399574e-17
vn -1.83697019872e-16 -1.0 6.12323399574e-17
vn 0.707106781187 -0.707106781187 6.12323399574e-17
vn 0.866025403784 0.0 -0.5
vn 0.612372435696 0.612372435696 -0.5
vn 5.30287619362e-17 0.866025403784 -0.5
vn -0.612372435696 0.612372435696 -0.5
vn -0.866025403784 1.06057523872e-16 -0.5
vn -0.612372435696 -0.612372435696 -0.5
vn -1.59086285809e-16 -0.866025403784 -0.5
vn 0.612372435696 -0.612372435696 -0.5
vn 0.5 0.0 -0.866025403784
vn 0.353553390593 0.353553390593 -0.866025403784
vn 3.06161699787e-17 0.5 -0.866025403784
vn -0.353553390593 0.353553390593 -0.866025403784
vn -0.5 6.12323399574e-17 -0.866025403784
vn -0.353553390593 -0.353553390593 -0.866025403784
vn -9.18485099361e-17 -0.5 -0.866025403784
vn 0.353553390593 -0.353553390593 -0.866025403784
vn 0 0 -1

usemtl ShinyWhite

f 10//10 11//11 3//3 2//2
f 11//11 12//12 4//4 3//3
f 12//12 13//13 5//5 4//4
f 13//13 14//14 6//6 5//5
f 14//14 15//15 7//7 6//6
f 15//15 16//16 8//8 7//7
f 16//16 17//17 9//9 8//8
f 18//18 19//19 11//11 10//10
f 19//19 20//20 12//12 11//11
f 20//20 21//21 13//13 12//12
f 21//21 22//22 14//14 13//13
f 22//22 23//23 15//15 14//14
f 23//23 24//24 16//16 15//15
f 24//24 25//25 17//17 16//16
f 26//26 27//27 19//19 18//18
f 27//27 28//28 20//20 19//19
f 28//28 29//29 21//21 20//20
f 29//29 30//30 22//22 21//21
f 30//30 31//31 23//23 22//22
f 31//31 32//32 24//24 23//23
f 32//32 33//33 25//25 24//24
f 34//34 35//35 27//27 26//26
f 35//35 36//36 28//28 27//27
f 36//36 37//37 29//29 28//28
f 37//37 38//38 30//30 29//29
f 38//38 39//39 31//31 30//30
f 39//39 40//40 32//32 31//31
f 40//40 41//41 33//33 32//32
f 9//9 17//17 10//10 2//2
f 17//17 25//25 18//18 10//10
f 25//25 33//33 26//26 18//18
f 33//33 41//41 34//34 26//26
f 2//2 3//3 1//1
f 3//3 4//4 1//1
f 4//4 5//5 1//1
f 5//5 6//6 1//1
f 6//6 7//7 1//1
f 7//7 8//8 1//1
f 8//8 9//9 1//1
f 9//9 2//2 1//1
f 34//34 42//42 35//35
f 35//35 42//42 36//36
f 36//36 42//42 37//37
f 37//37 42//42 38//38
f 38//38 42//42 39//39
f 39//39 42//42 40//40
f 40//40 42//42 41//41
f 41//41 42//42 34//34

